name analog
datacolumns 19
datarows 22
range 0.0 0.0105
endheader
time	ground_force_vx	ground_force_vy	ground_force_vz	ground_force_px	ground_force_py	ground_force_pz	l_ground_force_vx	l_ground_force_vy	l_ground_force_vz	l_ground_force_px	l_ground_force_py	l_ground_force_pz	ground_torque_x	ground_torque_y	ground_torque_z	l_ground_torque_x	l_ground_torque_y	l_ground_torque_z
0.0	-0.0	-0.0	-0.0	-0.7419857978820801	17.469558715820312	-248.80604553222656	-2.487635850906372	-29.284215927124023	-371.497314453125	-0.0	-0.0	-0.0	-0.0	-0.0	-0.0	118865.890625	-1613.8455810546875	-2678.970947265625
0.0005	-0.0	-0.0	-0.0	-0.6292055249214172	17.60089111328125	-248.7871551513672	-2.356546640396118	-29.537918090820312	-372.1956176757813	-0.0	-0.0	-0.0	-0.0	-0.0	-0.0	118751.2265625	-1459.7406005859375	-2534.44140625
0.001	-0.0	-0.0	-0.0	-0.4833959937095642	17.202167510986328	-248.638671875	-2.00578236579895	-28.93120002746582	-371.48193359375	-0.0	-0.0	-0.0	-0.0	-0.0	-0.0	118883.7421875	-1443.058349609375	-2518.659912109375
0.0015	-0.0	-0.0	-0.0	-0.7879338264465332	17.338354110717773	-248.45220947265625	-2.356926918029785	-29.322799682617188	-372.0130615234375	-0.0	-0.0	-0.0	-0.0	-0.0	-0.0	118707.8828125	-1864.2677001953125	-2589.895751953125
0.002	-0.0	-0.0	-0.0	-0.7658802270889282	17.4493350982666	-248.1589813232422	-2.3023462295532227	-28.75076675415039	-372.3946228027344	-0.0	-0.0	-0.0	-0.0	-0.0	-0.0	118928.375	-1625.6806640625	-2413.10986328125
0.0025	-0.0	-0.0	-0.0	-1.07569420337677	17.395917892456055	-246.87277221679688	-2.2642455101013184	-28.92746353149414	-372.4119262695313	-0.0	-0.0	-0.0	-0.0	-0.0	-0.0	119110.8828125	-1512.61181640625	-2499.319091796875
0.003	-0.0	-0.0	-0.0	-1.023263931274414	17.338518142700195	-246.8096618652344	-2.437353610992432	-28.868091583251957	-372.6934509277344	-0.0	-0.0	-0.0	-0.0	-0.0	-0.0	119195.4140625	-1812.926025390625	-2366.62353515625
0.0035	-0.0	-0.0	-0.0	-0.9286286234855652	17.254806518554688	-246.02182006835935	-2.11568021774292	-28.91869163513184	-372.5623168945313	-0.0	-0.0	-0.0	-0.0	-0.0	-0.0	118985.1171875	-1889.7171630859373	-2372.3603515625
0.004	-0.0	-0.0	-0.0	-0.7973610758781433	17.04359245300293	-245.6475982666016	-2.171112060546875	-28.709131240844727	-372.7646789550781	-0.0	-0.0	-0.0	-0.0	-0.0	-0.0	118994.90625	-1969.61181640625	-2400.640625
0.0045000000000000005	-0.0	-0.0	-0.0	-0.7272643446922302	17.296934127807617	-242.92079162597656	-1.956348419189453	-28.70454788208008	-372.1956176757813	-0.0	-0.0	-0.0	-0.0	-0.0	-0.0	118754.3046875	-1639.3731689453125	-2263.1494140625
0.005	-0.0	-0.0	-0.0	-0.91670823097229	17.380428314208984	-243.6036529541016	-1.8533570766448972	-28.500415802001957	-371.497314453125	-0.0	-0.0	-0.0	-0.0	-0.0	-0.0	118530.8125	-1894.013671875	-2145.968017578125
0.0055	-0.0	-0.0	-0.0	-0.5352630615234375	16.596471786499023	-242.4000244140625	-1.6805753707885742	-28.886098861694336	-370.83782958984375	-0.0	-0.0	-0.0	-0.0	-0.0	-0.0	118606.8515625	-2099.401123046875	-2127.03857421875
0.006	-0.0	-0.0	-0.0	-0.5650275945663452	16.63764762878418	-241.6455841064453	-1.5030784606933594	-28.48125267028809	-371.0031433105469	-0.0	-0.0	-0.0	-0.0	-0.0	-0.0	118289.2890625	-2076.515380859375	-2128.4453125
0.006500000000000001	-0.0	-0.0	-0.0	-0.3689295053482055	16.572216033935547	-240.186279296875	-1.2368392944335938	-28.65275382995605	-370.120849609375	-0.0	-0.0	-0.0	-0.0	-0.0	-0.0	117964.171875	-2249.802001953125	-1936.320068359375
0.007	-0.0	-0.0	-0.0	-0.4045420289039612	16.399993896484375	-239.43148803710935	-1.2107371091842651	-28.48112678527832	-369.79296875	-0.0	-0.0	-0.0	-0.0	-0.0	-0.0	117771.8203125	-2642.049560546875	-1955.4842529296875
0.0075	-0.0	-0.0	-0.0	-0.6119468808174133	16.507898330688477	-238.6752471923828	-0.662665843963623	-28.92269897460937	-368.6831665039063	-0.0	-0.0	-0.0	-0.0	-0.0	-0.0	117814.6875	-2533.408935546875	-1747.619873046875
0.008	-0.0	-0.0	-0.0	-1.0291253328323364	16.469913482666016	-238.04327392578125	-0.5432146191596985	-28.781967163085938	-369.1955261230469	-0.0	-0.0	-0.0	-0.0	-0.0	-0.0	117652.2578125	-2635.885009765625	-1581.721923828125
0.0085	-0.0	-0.0	-0.0	-0.4460525512695312	16.323884963989258	-237.66429138183597	-0.4019894301891327	-28.511232376098636	-367.4710998535156	-0.0	-0.0	-0.0	-0.0	-0.0	-0.0	117328.671875	-2973.78173828125	-1538.0255126953125
0.009000000000000001	-0.0	-0.0	-0.0	-0.905285656452179	16.365304946899414	-236.1990966796875	-0.0	-28.469667434692383	-367.9835815429688	-0.0	-0.0	-0.0	-0.0	-0.0	-0.0	117190.4140625	-2962.42822265625	-1581.3165283203125
0.0095	-0.0	-0.0	-0.0	-0.8576038479804993	16.22173309326172	-236.98373413085935	-0.1301661431789398	-28.539453506469727	-367.4250183105469	-0.0	-0.0	-0.0	-0.0	-0.0	-0.0	117171.390625	-2935.02392578125	-1524.0865478515625
0.01	-0.0	-0.0	-0.0	-0.7548836469650269	16.57825469970703	-235.1086578369141	-0.2247145175933838	-28.52205467224121	-366.0739135742188	-0.0	-0.0	-0.0	-0.0	-0.0	-0.0	116944.96875	-3161.485595703125	-1506.4207763671875
0.0105	-0.0	-0.0	-0.0	-1.1393473148345947	16.5989933013916	-234.83726501464844	-0.1300752162933349	-28.13939094543457	-366.3993225097656	-0.0	-0.0	-0.0	-0.0	-0.0	-0.0	116726.1015625	-3059.35009765625	-1446.946044921875
